<svg width="900"
  height="600"
  viewBox="0 0 900 600"
  fill="none"
  xmlns="http://www.w3.org/2000/svg">
  <rect width="900"
    height="600"
    fill="white" />
  <circle cx="314.5"
    cy="300.5"
    r="269"
    stroke="#252525"
    stroke-width="5" />
  <circle cx="585.5"
    cy="300.5"
    r="269"
    stroke="#252525"
    stroke-width="5" />
  <path d="M583.5 301C583.5 399.97 529.871 486.454 450 533.109C370.129 486.454 316.5 399.97 316.5 301C316.5 202.03 370.129 115.546 450 68.8907C529.871 115.546 583.5 202.03 583.5 301Z"
    fill="#5382A1"
    stroke="#252525"
    stroke-width="5" />
  <path d="M149.818 311.08V298.182H153.17V320H149.818V316.307H149.591C149.08 317.415 148.284 318.357 147.205 319.134C146.125 319.901 144.761 320.284 143.114 320.284C141.75 320.284 140.538 319.986 139.477 319.389C138.417 318.783 137.583 317.874 136.977 316.662C136.371 315.44 136.068 313.902 136.068 312.045V298.182H139.42V311.818C139.42 313.409 139.866 314.678 140.756 315.625C141.655 316.572 142.801 317.045 144.193 317.045C145.027 317.045 145.874 316.832 146.736 316.406C147.607 315.98 148.336 315.327 148.923 314.446C149.52 313.565 149.818 312.443 149.818 311.08ZM174.765 303.068L171.754 303.92C171.564 303.419 171.285 302.931 170.915 302.457C170.556 301.974 170.063 301.577 169.438 301.264C168.813 300.952 168.013 300.795 167.038 300.795C165.702 300.795 164.59 301.103 163.7 301.719C162.819 302.325 162.379 303.097 162.379 304.034C162.379 304.867 162.682 305.526 163.288 306.009C163.894 306.491 164.841 306.894 166.129 307.216L169.367 308.011C171.318 308.485 172.772 309.209 173.728 310.185C174.684 311.151 175.163 312.396 175.163 313.92C175.163 315.17 174.803 316.288 174.083 317.273C173.373 318.258 172.379 319.034 171.1 319.602C169.822 320.17 168.335 320.455 166.64 320.455C164.415 320.455 162.573 319.972 161.114 319.006C159.656 318.04 158.733 316.629 158.344 314.773L161.526 313.977C161.829 315.152 162.402 316.032 163.245 316.619C164.097 317.206 165.21 317.5 166.583 317.5C168.146 317.5 169.386 317.169 170.305 316.506C171.233 315.833 171.697 315.028 171.697 314.091C171.697 313.333 171.432 312.699 170.901 312.188C170.371 311.667 169.557 311.278 168.458 311.023L164.822 310.17C162.824 309.697 161.356 308.963 160.418 307.969C159.49 306.965 159.026 305.71 159.026 304.205C159.026 302.973 159.372 301.884 160.063 300.938C160.764 299.991 161.716 299.247 162.918 298.707C164.13 298.168 165.504 297.898 167.038 297.898C169.197 297.898 170.892 298.371 172.123 299.318C173.363 300.265 174.244 301.515 174.765 303.068ZM189.357 320.455C187.254 320.455 185.441 319.991 183.916 319.062C182.401 318.125 181.232 316.818 180.408 315.142C179.593 313.456 179.186 311.496 179.186 309.261C179.186 307.027 179.593 305.057 180.408 303.352C181.232 301.638 182.377 300.303 183.845 299.347C185.322 298.381 187.046 297.898 189.016 297.898C190.152 297.898 191.274 298.087 192.382 298.466C193.49 298.845 194.499 299.46 195.408 300.312C196.317 301.155 197.041 302.273 197.581 303.665C198.121 305.057 198.391 306.771 198.391 308.807V310.227H181.572V307.33H194.982C194.982 306.098 194.735 305 194.243 304.034C193.76 303.068 193.069 302.306 192.169 301.747C191.279 301.188 190.228 300.909 189.016 300.909C187.68 300.909 186.525 301.241 185.55 301.903C184.584 302.557 183.84 303.409 183.32 304.46C182.799 305.511 182.538 306.638 182.538 307.841V309.773C182.538 311.42 182.822 312.817 183.391 313.963C183.968 315.099 184.768 315.966 185.791 316.562C186.814 317.15 188.002 317.443 189.357 317.443C190.237 317.443 191.033 317.32 191.743 317.074C192.463 316.818 193.083 316.439 193.604 315.938C194.125 315.426 194.527 314.792 194.811 314.034L198.05 314.943C197.709 316.042 197.136 317.008 196.331 317.841C195.526 318.665 194.532 319.309 193.348 319.773C192.164 320.227 190.834 320.455 189.357 320.455ZM203.49 320V298.182H206.729V301.477H206.956C207.354 300.398 208.073 299.522 209.115 298.849C210.157 298.177 211.331 297.841 212.638 297.841C212.884 297.841 213.192 297.846 213.561 297.855C213.93 297.865 214.21 297.879 214.399 297.898V301.307C214.286 301.278 214.025 301.236 213.618 301.179C213.22 301.113 212.799 301.08 212.354 301.08C211.293 301.08 210.346 301.302 209.513 301.747C208.689 302.183 208.036 302.789 207.553 303.565C207.079 304.332 206.842 305.208 206.842 306.193V320H203.49ZM233.827 303.068L230.816 303.92C230.627 303.419 230.347 302.931 229.978 302.457C229.618 301.974 229.126 301.577 228.501 301.264C227.876 300.952 227.076 300.795 226.1 300.795C224.765 300.795 223.652 301.103 222.762 301.719C221.881 302.325 221.441 303.097 221.441 304.034C221.441 304.867 221.744 305.526 222.35 306.009C222.956 306.491 223.903 306.894 225.191 307.216L228.43 308.011C230.38 308.485 231.834 309.209 232.79 310.185C233.747 311.151 234.225 312.396 234.225 313.92C234.225 315.17 233.865 316.288 233.146 317.273C232.435 318.258 231.441 319.034 230.163 319.602C228.884 320.17 227.397 320.455 225.702 320.455C223.477 320.455 221.635 319.972 220.177 319.006C218.719 318.04 217.795 316.629 217.407 314.773L220.589 313.977C220.892 315.152 221.465 316.032 222.308 316.619C223.16 317.206 224.272 317.5 225.646 317.5C227.208 317.5 228.449 317.169 229.367 316.506C230.295 315.833 230.759 315.028 230.759 314.091C230.759 313.333 230.494 312.699 229.964 312.188C229.433 311.667 228.619 311.278 227.521 311.023L223.884 310.17C221.886 309.697 220.418 308.963 219.481 307.969C218.553 306.965 218.089 305.71 218.089 304.205C218.089 302.973 218.434 301.884 219.126 300.938C219.826 299.991 220.778 299.247 221.981 298.707C223.193 298.168 224.566 297.898 226.1 297.898C228.259 297.898 229.954 298.371 231.185 299.318C232.426 300.265 233.307 301.515 233.827 303.068Z"
    fill="#252525" />
  <path d="M663.068 328.182V298.182H666.307V301.648H666.705C666.951 301.269 667.292 300.786 667.727 300.199C668.172 299.602 668.807 299.072 669.631 298.608C670.464 298.134 671.591 297.898 673.011 297.898C674.848 297.898 676.468 298.357 677.869 299.276C679.271 300.194 680.365 301.496 681.151 303.182C681.937 304.867 682.33 306.856 682.33 309.148C682.33 311.458 681.937 313.461 681.151 315.156C680.365 316.842 679.276 318.149 677.884 319.077C676.491 319.995 674.886 320.455 673.068 320.455C671.667 320.455 670.545 320.223 669.702 319.759C668.859 319.285 668.21 318.75 667.756 318.153C667.301 317.547 666.951 317.045 666.705 316.648H666.42V328.182H663.068ZM666.364 309.091C666.364 310.739 666.605 312.192 667.088 313.452C667.571 314.702 668.277 315.682 669.205 316.392C670.133 317.093 671.269 317.443 672.614 317.443C674.015 317.443 675.185 317.074 676.122 316.335C677.069 315.587 677.779 314.583 678.253 313.324C678.736 312.055 678.977 310.644 678.977 309.091C678.977 307.557 678.741 306.174 678.267 304.943C677.803 303.703 677.098 302.723 676.151 302.003C675.213 301.274 674.034 300.909 672.614 300.909C671.25 300.909 670.104 301.255 669.176 301.946C668.248 302.628 667.547 303.584 667.074 304.815C666.6 306.037 666.364 307.462 666.364 309.091ZM696.591 320.455C694.489 320.455 692.675 319.991 691.151 319.062C689.635 318.125 688.466 316.818 687.642 315.142C686.828 313.456 686.42 311.496 686.42 309.261C686.42 307.027 686.828 305.057 687.642 303.352C688.466 301.638 689.612 300.303 691.08 299.347C692.557 298.381 694.28 297.898 696.25 297.898C697.386 297.898 698.509 298.087 699.616 298.466C700.724 298.845 701.733 299.46 702.642 300.312C703.551 301.155 704.276 302.273 704.815 303.665C705.355 305.057 705.625 306.771 705.625 308.807V310.227H688.807V307.33H702.216C702.216 306.098 701.97 305 701.477 304.034C700.994 303.068 700.303 302.306 699.403 301.747C698.513 301.188 697.462 300.909 696.25 300.909C694.915 300.909 693.759 301.241 692.784 301.903C691.818 302.557 691.075 303.409 690.554 304.46C690.033 305.511 689.773 306.638 689.773 307.841V309.773C689.773 311.42 690.057 312.817 690.625 313.963C691.203 315.099 692.003 315.966 693.026 316.562C694.048 317.15 695.237 317.443 696.591 317.443C697.472 317.443 698.267 317.32 698.977 317.074C699.697 316.818 700.317 316.439 700.838 315.938C701.359 315.426 701.761 314.792 702.045 314.034L705.284 314.943C704.943 316.042 704.37 317.008 703.565 317.841C702.76 318.665 701.766 319.309 700.582 319.773C699.399 320.227 698.068 320.455 696.591 320.455ZM720.213 298.182V301.023H708.906V298.182H720.213ZM712.202 292.955H715.554V313.75C715.554 314.697 715.691 315.407 715.966 315.881C716.25 316.345 716.61 316.657 717.045 316.818C717.491 316.97 717.959 317.045 718.452 317.045C718.821 317.045 719.124 317.027 719.361 316.989C719.598 316.941 719.787 316.903 719.929 316.875L720.611 319.886C720.384 319.972 720.066 320.057 719.659 320.142C719.252 320.237 718.736 320.284 718.111 320.284C717.164 320.284 716.236 320.08 715.327 319.673C714.427 319.266 713.679 318.646 713.082 317.812C712.495 316.979 712.202 315.928 712.202 314.659V292.955ZM740.32 303.068L737.308 303.92C737.119 303.419 736.839 302.931 736.47 302.457C736.11 301.974 735.618 301.577 734.993 301.264C734.368 300.952 733.568 300.795 732.592 300.795C731.257 300.795 730.144 301.103 729.254 301.719C728.374 302.325 727.933 303.097 727.933 304.034C727.933 304.867 728.236 305.526 728.842 306.009C729.448 306.491 730.395 306.894 731.683 307.216L734.922 308.011C736.873 308.485 738.326 309.209 739.283 310.185C740.239 311.151 740.717 312.396 740.717 313.92C740.717 315.17 740.357 316.288 739.638 317.273C738.928 318.258 737.933 319.034 736.655 319.602C735.376 320.17 733.89 320.455 732.195 320.455C729.969 320.455 728.127 319.972 726.669 319.006C725.211 318.04 724.287 316.629 723.899 314.773L727.081 313.977C727.384 315.152 727.957 316.032 728.8 316.619C729.652 317.206 730.765 317.5 732.138 317.5C733.7 317.5 734.941 317.169 735.859 316.506C736.787 315.833 737.251 315.028 737.251 314.091C737.251 313.333 736.986 312.699 736.456 312.188C735.926 311.667 735.111 311.278 734.013 311.023L730.376 310.17C728.378 309.697 726.911 308.963 725.973 307.969C725.045 306.965 724.581 305.71 724.581 304.205C724.581 302.973 724.927 301.884 725.618 300.938C726.319 299.991 727.27 299.247 728.473 298.707C729.685 298.168 731.058 297.898 732.592 297.898C734.751 297.898 736.446 298.371 737.678 299.318C738.918 300.265 739.799 301.515 740.32 303.068Z"
    fill="#252525" />
  <path d="M389.932 320.455C387.962 320.455 386.234 319.986 384.747 319.048C383.27 318.111 382.115 316.799 381.281 315.114C380.457 313.428 380.045 311.458 380.045 309.205C380.045 306.932 380.457 304.948 381.281 303.253C382.115 301.558 383.27 300.241 384.747 299.304C386.234 298.366 387.962 297.898 389.932 297.898C391.902 297.898 393.625 298.366 395.102 299.304C396.589 300.241 397.744 301.558 398.568 303.253C399.402 304.948 399.818 306.932 399.818 309.205C399.818 311.458 399.402 313.428 398.568 315.114C397.744 316.799 396.589 318.111 395.102 319.048C393.625 319.986 391.902 320.455 389.932 320.455ZM389.932 317.443C391.428 317.443 392.659 317.06 393.625 316.293C394.591 315.526 395.306 314.517 395.77 313.267C396.234 312.017 396.466 310.663 396.466 309.205C396.466 307.746 396.234 306.387 395.77 305.128C395.306 303.868 394.591 302.85 393.625 302.074C392.659 301.297 391.428 300.909 389.932 300.909C388.436 300.909 387.205 301.297 386.239 302.074C385.273 302.85 384.558 303.868 384.094 305.128C383.63 306.387 383.398 307.746 383.398 309.205C383.398 310.663 383.63 312.017 384.094 313.267C384.558 314.517 385.273 315.526 386.239 316.293C387.205 317.06 388.436 317.443 389.932 317.443ZM409.136 320L402.489 298.182H406.011L410.727 314.886H410.955L415.614 298.182H419.193L423.795 314.83H424.023L428.739 298.182H432.261L425.614 320H422.318L417.545 303.239H417.205L412.432 320H409.136ZM440.045 306.875V320H436.693V298.182H439.932V301.591H440.216C440.727 300.483 441.504 299.593 442.545 298.92C443.587 298.239 444.932 297.898 446.58 297.898C448.057 297.898 449.349 298.201 450.457 298.807C451.565 299.403 452.427 300.312 453.043 301.534C453.658 302.746 453.966 304.28 453.966 306.136V320H450.614V306.364C450.614 304.65 450.169 303.314 449.278 302.358C448.388 301.392 447.167 300.909 445.614 300.909C444.544 300.909 443.587 301.141 442.744 301.605C441.911 302.069 441.253 302.746 440.77 303.636C440.287 304.527 440.045 305.606 440.045 306.875ZM469.239 320.455C467.137 320.455 465.324 319.991 463.799 319.062C462.284 318.125 461.114 316.818 460.29 315.142C459.476 313.456 459.069 311.496 459.069 309.261C459.069 307.027 459.476 305.057 460.29 303.352C461.114 301.638 462.26 300.303 463.728 299.347C465.205 298.381 466.929 297.898 468.898 297.898C470.035 297.898 471.157 298.087 472.265 298.466C473.373 298.845 474.381 299.46 475.29 300.312C476.2 301.155 476.924 302.273 477.464 303.665C478.004 305.057 478.273 306.771 478.273 308.807V310.227H461.455V307.33H474.864C474.864 306.098 474.618 305 474.126 304.034C473.643 303.068 472.951 302.306 472.052 301.747C471.162 301.188 470.111 300.909 468.898 300.909C467.563 300.909 466.408 301.241 465.433 301.903C464.467 302.557 463.723 303.409 463.202 304.46C462.682 305.511 462.421 306.638 462.421 307.841V309.773C462.421 311.42 462.705 312.817 463.273 313.963C463.851 315.099 464.651 315.966 465.674 316.562C466.697 317.15 467.885 317.443 469.239 317.443C470.12 317.443 470.915 317.32 471.626 317.074C472.345 316.818 472.966 316.439 473.487 315.938C474.007 315.426 474.41 314.792 474.694 314.034L477.933 314.943C477.592 316.042 477.019 317.008 476.214 317.841C475.409 318.665 474.415 319.309 473.231 319.773C472.047 320.227 470.717 320.455 469.239 320.455ZM483.373 320V298.182H486.612V301.477H486.839C487.237 300.398 487.956 299.522 488.998 298.849C490.04 298.177 491.214 297.841 492.521 297.841C492.767 297.841 493.075 297.846 493.444 297.855C493.813 297.865 494.093 297.879 494.282 297.898V301.307C494.168 301.278 493.908 301.236 493.501 301.179C493.103 301.113 492.682 301.08 492.237 301.08C491.176 301.08 490.229 301.302 489.396 301.747C488.572 302.183 487.918 302.789 487.435 303.565C486.962 304.332 486.725 305.208 486.725 306.193V320H483.373ZM513.71 303.068L510.699 303.92C510.509 303.419 510.23 302.931 509.861 302.457C509.501 301.974 509.009 301.577 508.384 301.264C507.759 300.952 506.958 300.795 505.983 300.795C504.648 300.795 503.535 301.103 502.645 301.719C501.764 302.325 501.324 303.097 501.324 304.034C501.324 304.867 501.627 305.526 502.233 306.009C502.839 306.491 503.786 306.894 505.074 307.216L508.312 308.011C510.263 308.485 511.717 309.209 512.673 310.185C513.63 311.151 514.108 312.396 514.108 313.92C514.108 315.17 513.748 316.288 513.028 317.273C512.318 318.258 511.324 319.034 510.045 319.602C508.767 320.17 507.28 320.455 505.585 320.455C503.36 320.455 501.518 319.972 500.06 319.006C498.601 318.04 497.678 316.629 497.29 314.773L500.472 313.977C500.775 315.152 501.348 316.032 502.19 316.619C503.043 317.206 504.155 317.5 505.528 317.5C507.091 317.5 508.331 317.169 509.25 316.506C510.178 315.833 510.642 315.028 510.642 314.091C510.642 313.333 510.377 312.699 509.847 312.188C509.316 311.667 508.502 311.278 507.403 311.023L503.767 310.17C501.769 309.697 500.301 308.963 499.364 307.969C498.436 306.965 497.972 305.71 497.972 304.205C497.972 302.973 498.317 301.884 499.009 300.938C499.709 299.991 500.661 299.247 501.864 298.707C503.076 298.168 504.449 297.898 505.983 297.898C508.142 297.898 509.837 298.371 511.068 299.318C512.309 300.265 513.189 301.515 513.71 303.068Z"
    fill="#252525" />
</svg>
