<svg id="visual" viewBox="0 0 900 600" width="900" height="600" xmlns="http://www.w3.org/2000/svg" xmlns:xlink="http://www.w3.org/1999/xlink" version="1.1"><path d="M0 121L15 129C30 137 60 153 90 144C120 135 150 101 180 84C210 67 240 67 270 70C300 73 330 79 360 81C390 83 420 81 450 95C480 109 510 139 540 143C570 147 600 125 630 106C660 87 690 71 720 66C750 61 780 67 810 71C840 75 870 77 885 78L900 79L900 0L885 0C870 0 840 0 810 0C780 0 750 0 720 0C690 0 660 0 630 0C600 0 570 0 540 0C510 0 480 0 450 0C420 0 390 0 360 0C330 0 300 0 270 0C240 0 210 0 180 0C150 0 120 0 90 0C60 0 30 0 15 0L0 0Z" fill="#0066ff"></path><path d="M0 253L15 252C30 251 60 249 90 230C120 211 150 175 180 179C210 183 240 227 270 261C300 295 330 319 360 339C390 359 420 375 450 375C480 375 510 359 540 334C570 309 600 275 630 272C660 269 690 297 720 288C750 279 780 233 810 206C840 179 870 171 885 167L900 163L900 77L885 76C870 75 840 73 810 69C780 65 750 59 720 64C690 69 660 85 630 104C600 123 570 145 540 141C510 137 480 107 450 93C420 79 390 81 360 79C330 77 300 71 270 68C240 65 210 65 180 82C150 99 120 133 90 142C60 151 30 135 15 127L0 119Z" fill="#2059ff"></path><path d="M0 469L15 462C30 455 60 441 90 433C120 425 150 423 180 428C210 433 240 445 270 443C300 441 330 425 360 426C390 427 420 445 450 446C480 447 510 431 540 424C570 417 600 419 630 424C660 429 690 437 720 442C750 447 780 449 810 454C840 459 870 467 885 471L900 475L900 161L885 165C870 169 840 177 810 204C780 231 750 277 720 286C690 295 660 267 630 270C600 273 570 307 540 332C510 357 480 373 450 373C420 373 390 357 360 337C330 317 300 293 270 259C240 225 210 181 180 177C150 173 120 209 90 228C60 247 30 249 15 250L0 251Z" fill="#3849ff"></path><path d="M0 559L15 547C30 535 60 511 90 503C120 495 150 503 180 505C210 507 240 503 270 494C300 485 330 471 360 482C390 493 420 529 450 533C480 537 510 509 540 492C570 475 600 469 630 471C660 473 690 483 720 489C750 495 780 497 810 504C840 511 870 523 885 529L900 535L900 473L885 469C870 465 840 457 810 452C780 447 750 445 720 440C690 435 660 427 630 422C600 417 570 415 540 422C510 429 480 445 450 444C420 443 390 425 360 424C330 423 300 439 270 441C240 443 210 431 180 426C150 421 120 423 90 431C60 439 30 453 15 460L0 467Z" fill="#4f34ff"></path><path d="M0 601L15 601C30 601 60 601 90 601C120 601 150 601 180 601C210 601 240 601 270 601C300 601 330 601 360 601C390 601 420 601 450 601C480 601 510 601 540 601C570 601 600 601 630 601C660 601 690 601 720 601C750 601 780 601 810 601C840 601 870 601 885 601L900 601L900 533L885 527C870 521 840 509 810 502C780 495 750 493 720 487C690 481 660 471 630 469C600 467 570 473 540 490C510 507 480 535 450 531C420 527 390 491 360 480C330 469 300 483 270 492C240 501 210 505 180 503C150 501 120 493 90 501C60 509 30 533 15 545L0 557Z" fill="#6600ff"></path></svg>